<svg width="38" height="38" viewBox="0 0 38 38" fill="none" xmlns="http://www.w3.org/2000/svg">
<path d="M19 0C8.50725 0 0 8.50725 0 19C0 29.4928 8.50725 38 19 38C29.4928 38 38 29.4928 38 19C38 8.50725 29.4928 0 19 0ZM19 26.9167C18.3556 26.9167 17.7444 26.8834 17.1633 26.8169C18.2289 23.7088 19.5003 22.192 21.6537 19.2565C22.1714 18.5519 22.2696 17.6352 21.6489 17.0177C21.0298 16.4002 20.0181 16.3938 19.4101 17.0224C14.4115 22.192 12.6667 28.8436 12.6667 30.0833C12.6667 30.9573 11.9589 31.6667 11.0833 31.6667C10.2078 31.6667 9.5 30.9573 9.5 30.0833C9.5 28.4905 10.1903 25.821 11.6296 22.8095C11.2781 21.7867 11.0723 20.539 11.0833 19C11.134 11.8671 16.6139 7.02367 28.5 9.5C30.3145 23.5125 23.75 26.9167 19 26.9167Z" fill="#F580EB"/>
</svg>
