<svg width="140" height="35" viewBox="0 0 140 35" fill="none" xmlns="http://www.w3.org/2000/svg">
<rect width="140" height="35" rx="10" fill="#F580EB"/>
<path d="M46.7852 18.6318H44.2285L44.2148 17.2236H46.3613C46.7396 17.2236 47.0495 17.1758 47.291 17.0801C47.5326 16.9798 47.7126 16.8363 47.8311 16.6494C47.9541 16.458 48.0156 16.2256 48.0156 15.9521C48.0156 15.6423 47.9564 15.3916 47.8379 15.2002C47.724 15.0088 47.5439 14.8698 47.2979 14.7832C47.0563 14.6966 46.7441 14.6533 46.3613 14.6533H44.9395V23H42.8887V13.0469H46.3613C46.9401 13.0469 47.4574 13.1016 47.9131 13.2109C48.3734 13.3203 48.763 13.4867 49.082 13.71C49.401 13.9333 49.6449 14.2158 49.8135 14.5576C49.9821 14.8949 50.0664 15.2959 50.0664 15.7607C50.0664 16.1709 49.973 16.5492 49.7861 16.8955C49.6038 17.2419 49.3145 17.5244 48.918 17.7432C48.526 17.9619 48.0133 18.0827 47.3799 18.1055L46.7852 18.6318ZM46.6963 23H43.668L44.4678 21.4004H46.6963C47.0563 21.4004 47.3503 21.3434 47.5781 21.2295C47.806 21.111 47.9746 20.9515 48.084 20.751C48.1934 20.5505 48.248 20.3203 48.248 20.0605C48.248 19.7689 48.1979 19.516 48.0977 19.3018C48.002 19.0876 47.847 18.9235 47.6328 18.8096C47.4186 18.6911 47.1361 18.6318 46.7852 18.6318H44.8096L44.8232 17.2236H47.2842L47.7559 17.7773C48.362 17.7682 48.8496 17.8753 49.2188 18.0986C49.5924 18.3174 49.8636 18.6022 50.0322 18.9531C50.2054 19.304 50.292 19.68 50.292 20.0811C50.292 20.7191 50.153 21.2568 49.875 21.6943C49.597 22.1273 49.1891 22.4531 48.6514 22.6719C48.1182 22.8906 47.4665 23 46.6963 23ZM56.082 21.2295V15.6035H58.0508V23H56.1982L56.082 21.2295ZM56.3008 19.7119L56.8818 19.6982C56.8818 20.1904 56.8249 20.6484 56.7109 21.0723C56.597 21.4915 56.4261 21.8561 56.1982 22.166C55.9704 22.4714 55.6833 22.7106 55.3369 22.8838C54.9906 23.0524 54.5827 23.1367 54.1133 23.1367C53.7533 23.1367 53.4206 23.0866 53.1152 22.9863C52.8145 22.8815 52.5547 22.7197 52.3359 22.501C52.1217 22.2777 51.9531 21.9928 51.8301 21.6465C51.7116 21.2956 51.6523 20.874 51.6523 20.3818V15.6035H53.6211V20.3955C53.6211 20.6143 53.6462 20.7988 53.6963 20.9492C53.751 21.0996 53.8262 21.2227 53.9219 21.3184C54.0176 21.4141 54.1292 21.4824 54.2568 21.5234C54.389 21.5645 54.5348 21.585 54.6943 21.585C55.0999 21.585 55.4189 21.5029 55.6514 21.3389C55.8883 21.1748 56.0547 20.9515 56.1504 20.6689C56.2507 20.3818 56.3008 20.0628 56.3008 19.7119ZM61.749 22.166L63.7109 15.6035H65.8232L62.8496 24.1143C62.7858 24.3011 62.6992 24.5016 62.5898 24.7158C62.485 24.93 62.3415 25.1328 62.1592 25.3242C61.9814 25.5202 61.7559 25.6797 61.4824 25.8027C61.2135 25.9258 60.8831 25.9873 60.4912 25.9873C60.3044 25.9873 60.1517 25.9759 60.0332 25.9531C59.9147 25.9303 59.7734 25.8984 59.6094 25.8574V24.415C59.6595 24.415 59.7119 24.415 59.7666 24.415C59.8213 24.4196 59.8737 24.4219 59.9238 24.4219C60.1836 24.4219 60.3955 24.3923 60.5596 24.333C60.7236 24.2738 60.8558 24.1826 60.9561 24.0596C61.0563 23.9411 61.1361 23.7861 61.1953 23.5947L61.749 22.166ZM60.9287 15.6035L62.5352 20.9629L62.8154 23.0479L61.4756 23.1914L58.8164 15.6035H60.9287ZM74.0947 19.4521H71.5586V17.8525H74.0947C74.4867 17.8525 74.8057 17.7887 75.0518 17.6611C75.2979 17.529 75.4779 17.3467 75.5918 17.1143C75.7057 16.8818 75.7627 16.6198 75.7627 16.3281C75.7627 16.0319 75.7057 15.7562 75.5918 15.501C75.4779 15.2458 75.2979 15.0407 75.0518 14.8857C74.8057 14.7308 74.4867 14.6533 74.0947 14.6533H72.2695V23H70.2188V13.0469H74.0947C74.874 13.0469 75.5417 13.1882 76.0977 13.4707C76.6582 13.7487 77.0866 14.1338 77.3828 14.626C77.679 15.1182 77.8271 15.681 77.8271 16.3145C77.8271 16.957 77.679 17.513 77.3828 17.9824C77.0866 18.4518 76.6582 18.8141 76.0977 19.0693C75.5417 19.3245 74.874 19.4521 74.0947 19.4521ZM81.0879 17.2168V23H79.1191V15.6035H80.9717L81.0879 17.2168ZM83.3164 15.5557L83.2822 17.3809C83.1865 17.3672 83.0703 17.3558 82.9336 17.3467C82.8014 17.333 82.6807 17.3262 82.5713 17.3262C82.2933 17.3262 82.0518 17.3626 81.8467 17.4355C81.6462 17.5039 81.4775 17.6064 81.3408 17.7432C81.2087 17.8799 81.1084 18.0462 81.04 18.2422C80.9762 18.4382 80.9398 18.6615 80.9307 18.9121L80.5342 18.7891C80.5342 18.3105 80.582 17.8708 80.6777 17.4697C80.7734 17.0641 80.9124 16.7109 81.0947 16.4102C81.2816 16.1094 81.5094 15.877 81.7783 15.7129C82.0472 15.5488 82.3548 15.4668 82.7012 15.4668C82.8105 15.4668 82.9222 15.4759 83.0361 15.4941C83.1501 15.5078 83.2435 15.5283 83.3164 15.5557ZM87.5137 23.1367C86.9395 23.1367 86.4245 23.0456 85.9688 22.8633C85.513 22.6764 85.1257 22.4189 84.8066 22.0908C84.4922 21.7627 84.2507 21.3822 84.082 20.9492C83.9134 20.5117 83.8291 20.0469 83.8291 19.5547V19.2812C83.8291 18.7207 83.9089 18.208 84.0684 17.7432C84.2279 17.2783 84.4557 16.875 84.752 16.5332C85.0527 16.1914 85.4173 15.9294 85.8457 15.7471C86.2741 15.5602 86.7572 15.4668 87.2949 15.4668C87.819 15.4668 88.2839 15.5534 88.6895 15.7266C89.0951 15.8997 89.4346 16.1458 89.708 16.4648C89.986 16.7839 90.1956 17.1667 90.3369 17.6133C90.4782 18.0553 90.5488 18.5475 90.5488 19.0898V19.9102H84.6699V18.5977H88.6143V18.4473C88.6143 18.1738 88.5641 17.93 88.4639 17.7158C88.3682 17.4971 88.2223 17.3239 88.0264 17.1963C87.8304 17.0687 87.5798 17.0049 87.2744 17.0049C87.0146 17.0049 86.7913 17.0618 86.6045 17.1758C86.4176 17.2897 86.265 17.4492 86.1465 17.6543C86.0326 17.8594 85.946 18.1009 85.8867 18.3789C85.832 18.6523 85.8047 18.9531 85.8047 19.2812V19.5547C85.8047 19.8509 85.8457 20.1243 85.9277 20.375C86.0143 20.6257 86.1351 20.8421 86.29 21.0244C86.4495 21.2067 86.641 21.348 86.8643 21.4482C87.0921 21.5485 87.3496 21.5986 87.6367 21.5986C87.9922 21.5986 88.3226 21.5303 88.6279 21.3936C88.9378 21.2523 89.2044 21.0404 89.4277 20.7578L90.3848 21.7969C90.2298 22.0202 90.0179 22.2344 89.749 22.4395C89.4847 22.6445 89.1657 22.8132 88.792 22.9453C88.4183 23.0729 87.9922 23.1367 87.5137 23.1367ZM93.6387 17.1348V23H91.6631V15.6035H93.5156L93.6387 17.1348ZM93.3652 19.042H92.8184C92.8184 18.527 92.8799 18.0531 93.0029 17.6201C93.1305 17.1826 93.3151 16.8044 93.5566 16.4854C93.8027 16.1618 94.1058 15.9111 94.4658 15.7334C94.8258 15.5557 95.2428 15.4668 95.7168 15.4668C96.0449 15.4668 96.3457 15.5169 96.6191 15.6172C96.8926 15.7129 97.1273 15.8656 97.3232 16.0752C97.5238 16.2803 97.6787 16.5492 97.7881 16.8818C97.8975 17.21 97.9521 17.6042 97.9521 18.0645V23H95.9834V18.2832C95.9834 17.946 95.9378 17.6862 95.8467 17.5039C95.7555 17.3216 95.6257 17.194 95.457 17.1211C95.293 17.0482 95.0947 17.0117 94.8623 17.0117C94.6071 17.0117 94.3838 17.0641 94.1924 17.1689C94.0055 17.2738 93.8506 17.4196 93.7275 17.6064C93.6045 17.7887 93.5133 18.0029 93.4541 18.249C93.3949 18.4951 93.3652 18.7594 93.3652 19.042ZM97.7676 18.8164L97.0635 18.9053C97.0635 18.4222 97.1227 17.9733 97.2412 17.5586C97.3643 17.1439 97.5443 16.7793 97.7812 16.4648C98.0228 16.1504 98.3213 15.9066 98.6768 15.7334C99.0322 15.5557 99.4424 15.4668 99.9072 15.4668C100.263 15.4668 100.586 15.5192 100.878 15.624C101.17 15.7243 101.418 15.8861 101.623 16.1094C101.833 16.3281 101.992 16.6152 102.102 16.9707C102.215 17.3262 102.272 17.7614 102.272 18.2764V23H100.297V18.2764C100.297 17.9346 100.251 17.6748 100.16 17.4971C100.074 17.3148 99.946 17.1895 99.7773 17.1211C99.6133 17.0482 99.4173 17.0117 99.1895 17.0117C98.9525 17.0117 98.7451 17.0596 98.5674 17.1553C98.3896 17.2464 98.2415 17.374 98.123 17.5381C98.0046 17.7021 97.9157 17.8936 97.8564 18.1123C97.7972 18.3265 97.7676 18.5612 97.7676 18.8164ZM105.875 15.6035V23H103.899V15.6035H105.875ZM103.776 13.6758C103.776 13.3887 103.877 13.1517 104.077 12.9648C104.278 12.778 104.547 12.6846 104.884 12.6846C105.216 12.6846 105.483 12.778 105.684 12.9648C105.889 13.1517 105.991 13.3887 105.991 13.6758C105.991 13.9629 105.889 14.1999 105.684 14.3867C105.483 14.5736 105.216 14.667 104.884 14.667C104.547 14.667 104.278 14.5736 104.077 14.3867C103.877 14.1999 103.776 13.9629 103.776 13.6758ZM111.877 21.2295V15.6035H113.846V23H111.993L111.877 21.2295ZM112.096 19.7119L112.677 19.6982C112.677 20.1904 112.62 20.6484 112.506 21.0723C112.392 21.4915 112.221 21.8561 111.993 22.166C111.765 22.4714 111.478 22.7106 111.132 22.8838C110.785 23.0524 110.378 23.1367 109.908 23.1367C109.548 23.1367 109.215 23.0866 108.91 22.9863C108.609 22.8815 108.35 22.7197 108.131 22.501C107.917 22.2777 107.748 21.9928 107.625 21.6465C107.507 21.2956 107.447 20.874 107.447 20.3818V15.6035H109.416V20.3955C109.416 20.6143 109.441 20.7988 109.491 20.9492C109.546 21.0996 109.621 21.2227 109.717 21.3184C109.812 21.4141 109.924 21.4824 110.052 21.5234C110.184 21.5645 110.33 21.585 110.489 21.585C110.895 21.585 111.214 21.5029 111.446 21.3389C111.683 21.1748 111.85 20.9515 111.945 20.6689C112.046 20.3818 112.096 20.0628 112.096 19.7119ZM117.318 17.1348V23H115.343V15.6035H117.195L117.318 17.1348ZM117.045 19.042H116.498C116.498 18.527 116.56 18.0531 116.683 17.6201C116.81 17.1826 116.995 16.8044 117.236 16.4854C117.482 16.1618 117.785 15.9111 118.146 15.7334C118.506 15.5557 118.923 15.4668 119.396 15.4668C119.725 15.4668 120.025 15.5169 120.299 15.6172C120.572 15.7129 120.807 15.8656 121.003 16.0752C121.203 16.2803 121.358 16.5492 121.468 16.8818C121.577 17.21 121.632 17.6042 121.632 18.0645V23H119.663V18.2832C119.663 17.946 119.618 17.6862 119.526 17.5039C119.435 17.3216 119.305 17.194 119.137 17.1211C118.973 17.0482 118.774 17.0117 118.542 17.0117C118.287 17.0117 118.063 17.0641 117.872 17.1689C117.685 17.2738 117.53 17.4196 117.407 17.6064C117.284 17.7887 117.193 18.0029 117.134 18.249C117.075 18.4951 117.045 18.7594 117.045 19.042ZM121.447 18.8164L120.743 18.9053C120.743 18.4222 120.802 17.9733 120.921 17.5586C121.044 17.1439 121.224 16.7793 121.461 16.4648C121.702 16.1504 122.001 15.9066 122.356 15.7334C122.712 15.5557 123.122 15.4668 123.587 15.4668C123.942 15.4668 124.266 15.5192 124.558 15.624C124.849 15.7243 125.098 15.8861 125.303 16.1094C125.512 16.3281 125.672 16.6152 125.781 16.9707C125.895 17.3262 125.952 17.7614 125.952 18.2764V23H123.977V18.2764C123.977 17.9346 123.931 17.6748 123.84 17.4971C123.753 17.3148 123.626 17.1895 123.457 17.1211C123.293 17.0482 123.097 17.0117 122.869 17.0117C122.632 17.0117 122.425 17.0596 122.247 17.1553C122.069 17.2464 121.921 17.374 121.803 17.5381C121.684 17.7021 121.595 17.8936 121.536 18.1123C121.477 18.3265 121.447 18.5612 121.447 18.8164Z" fill="white"/>
<path fill-rule="evenodd" clip-rule="evenodd" d="M17.287 24.4192L14.0114 23.5374L13.3437 22.7185V18.4352L11.5547 16.0731L13.3437 13.459V9.4277L16.0901 12.7032L17.8539 9.74265L20.6885 12.3882L23.001 9.80564L25.6032 12.7662L28.0599 9.4277L29.8867 12.2622L32.6262 9.67966V23.0335C32.6262 23.0335 24.1531 25.742 17.287 24.4192Z" fill="white"/>
<path fill-rule="evenodd" clip-rule="evenodd" d="M16.75 24.1043V11.3804L19.0511 13.9629L21.6873 11.3804L23.8385 14.3409L26.4842 11.3804L28.6889 13.9L31.3125 11.3804L32.6253 13.0181V22.9075C32.6253 22.9075 30.8691 24.4822 26.0628 24.6082C21.2565 24.7342 16.75 24.1043 16.75 24.1043Z" fill="#FEC652"/>
<path fill-rule="evenodd" clip-rule="evenodd" d="M22.9996 19.695L21.1924 17.0495L22.9996 14.3409L24.9089 17.018L22.9996 19.695Z" fill="white"/>
<path fill-rule="evenodd" clip-rule="evenodd" d="M32.6247 18.6872L30.8301 16.0416L32.6247 13.459L34.6726 16.0731L32.6247 18.6872Z" fill="white"/>
<path fill-rule="evenodd" clip-rule="evenodd" d="M14.0113 17.6794L12.9404 16.0416L14.0113 14.7818L15.1452 16.2306L14.0113 17.6794Z" fill="#95E7EE"/>
<path fill-rule="evenodd" clip-rule="evenodd" d="M23.9016 18.6242L22.5693 17.0494L23.9016 15.4117L24.9725 17.0494L23.9016 18.6242Z" fill="#FF4A70"/>
<path fill-rule="evenodd" clip-rule="evenodd" d="M33.602 17.6794L32.625 16.2306L33.602 14.5299L34.6099 16.1046L33.602 17.6794Z" fill="#95E7EE"/>
<path fill-rule="evenodd" clip-rule="evenodd" d="M13.1247 10C13.314 9.99899 13.5028 10.0201 13.6872 10.063C14.052 10.7868 14.8387 11.2491 15.3124 11.874C15.5474 12.1833 16.1874 12.8106 16.1874 12.8106C16.1874 12.8106 17.1323 11.2479 17.5002 10.6879C17.6312 10.4876 17.7194 10.0977 17.9373 10.0007H18.3783C18.4413 10.0511 18.3953 10.0227 18.5043 10.0637L20.5043 12.6865H20.5672C20.7802 12.0566 21.7294 11.3455 22.1301 10.8132C22.2945 10.5953 22.508 10.1109 22.755 10.0013H23.2551L25.5052 12.6865V12.6236C25.7572 12.4245 25.8737 12.1379 26.0677 11.874C26.5529 11.2219 27.0727 10.5964 27.6249 10H28.0627C28.4709 10.6551 29.0573 11.2472 29.5002 11.8733C29.6935 12.1467 29.7565 12.5253 30.125 12.6229C30.4898 11.8985 31.2765 11.4362 31.7502 10.812C31.9449 10.555 32.1225 10.189 32.4375 10.063C32.5975 9.95342 32.8243 10.0233 33 10.063C33.3005 11.1055 33.1291 12.7993 33.126 14.0597C33.4882 14.4181 34.9767 16.6095 35 17.1809C34.4545 17.7219 34.1181 18.5301 33.6872 19.1795C33.5392 19.4019 33.2129 19.6708 33.1247 19.9285V20.9905C33.1247 22.0046 33.1877 23.2298 32.9987 24.0499C32.6454 24.2823 32.3587 24.6168 31.9361 24.7995C30.7335 25.3179 29.2148 25.3664 27.8113 25.6738L25.4365 25.7997C24.4368 26.0108 22.6258 26.0933 21.5613 25.8627H20.5622C19.8529 25.7078 18.9339 25.7651 18.2498 25.6108C16.5024 25.2221 14.6913 25.3374 13.4378 24.4877C13.2016 24.3277 13.0712 24.0058 12.8753 23.8011V19.9285C12.5698 19.0025 11.0517 17.9141 11 16.8067C11.5518 16.2763 11.8819 15.4556 12.3128 14.808C12.4652 14.5788 12.7858 14.3318 12.8753 14.0591V10.252C12.9689 10.1791 13.0528 10.0944 13.1247 10V10ZM22.9376 11.1868C22.7109 11.8356 21.9531 12.2922 21.5625 12.81C20.9698 13.5949 20.268 14.2871 19.6872 15.0581C19.4983 15.3101 19.3238 15.6433 19.0624 15.8077C18.7241 16.0193 18.0778 16.0439 17.6872 15.8707C17.2778 15.6867 17.0472 15.1816 16.7499 14.871C16.0261 14.1101 14.0457 11.8532 13.8126 11.6863V14.0591C13.8126 14.0591 15.6646 16.6095 15.6872 17.1809C15.1411 17.7188 14.8054 18.5314 14.3751 19.1795C14.2271 19.4019 13.9002 19.6708 13.8126 19.9285V21.6771C14.7487 22.1974 15.9764 22.4531 17.1877 22.7384C17.9342 22.9148 18.7272 22.8323 19.4378 22.9904C20.3247 23.185 21.5543 22.6377 21.5625 23.74L21.3735 23.866C21.0542 24.1091 19.8132 23.9189 19.2488 23.866C18.0413 23.7519 16.6813 23.6833 15.5613 23.3664C14.9754 23.2008 14.3852 22.9488 13.8113 22.8046V23.5535C15.6772 24.6458 18.5326 24.8316 21.3704 24.9273C22.2321 24.9563 23.5172 25.1163 24.3707 24.9273H25.7458C26.3959 24.7837 27.2482 24.8196 27.8706 24.6754C29.0775 24.4001 30.1074 24.4234 31.1203 24.0505C31.4315 23.9359 32.0192 23.8615 32.183 23.6134V22.7384H32.12C31.3609 23.4446 28.2006 23.6455 26.8072 23.8628C26.2283 23.9529 24.5805 24.0518 24.4324 23.7368V23.2997C24.5477 23.2294 24.6535 23.1447 24.7474 23.0477C26.7531 23.0962 28.8356 22.8304 30.435 22.3611C30.8759 22.2307 31.9896 22.033 32.1849 21.7363V19.8661C31.8932 19.6356 31.7704 19.2457 31.56 18.9295C31.1707 18.3449 30.3915 17.6886 30.3102 16.8691C30.8772 16.2801 31.228 15.4323 31.6847 14.7457C31.8107 14.5605 32.1036 14.3243 32.1849 14.1215V11.6863H32.1219C31.5235 12.6941 30.4444 13.387 29.7471 14.3085C29.3937 14.7835 28.9402 15.4915 28.4375 15.8077C28.0652 16.0414 27.3099 16.042 26.9376 15.8077C26.5534 15.5652 26.2731 15.048 25.9997 14.6833C25.4076 13.8934 24.5924 13.2264 23.9997 12.4352C23.708 12.0459 23.3843 11.4034 22.9376 11.1868ZM18.1874 11.2498C18.1874 11.2498 17.0472 12.7388 16.7499 13.6219C17.3717 14.0471 17.5524 15.0531 18.5622 15.0581C18.9276 14.495 19.6438 14.0156 19.875 13.3719H19.812C19.7143 13.0727 18.1874 11.2491 18.1874 11.2491V11.2498ZM27.7502 11.2498C27.5424 11.6699 26.4198 13.1338 26.0627 13.3725V13.4355H26.1257C26.3953 13.9111 27.2274 15.0638 27.938 15.0594C28.3291 14.4673 29.1298 13.998 29.3754 13.3108C28.8022 12.8894 28.3606 11.4967 27.7502 11.2491V11.2498ZM22.8123 14.6833C22.9809 14.6845 23.1488 14.7056 23.3124 14.7463C23.7433 15.6206 25.2652 17.1519 25.3124 18.1181C24.7682 18.6718 24.3046 19.536 23.875 20.1792C23.6702 20.4859 23.5468 20.9716 23.1877 21.1158C23.034 21.2191 22.8595 21.1542 22.6876 21.1158C22.2567 20.2415 20.7348 18.7103 20.6876 17.744C21.5443 16.8817 22.0041 15.5891 22.8123 14.6833ZM13.3124 15.0613C13.0661 15.5727 12.4608 16.551 12.0627 16.9289C12.1017 17.0385 12.0746 16.9919 12.1257 17.0549C12.3398 17.7478 12.983 18.2907 13.3131 18.9282L13.4391 18.8652C13.754 18.2 14.5294 17.6608 14.6265 16.8672C14.0633 16.4168 13.9014 15.4764 13.3124 15.0581V15.0613ZM32.5622 15.0613C32.3537 15.8442 31.5783 16.3211 31.3124 17.0593C31.7924 17.4152 32.2315 18.7884 32.7499 18.9326C32.9647 18.1421 33.8296 17.732 33.9373 16.8722C33.5039 16.5138 33.0567 15.1954 32.5622 15.0581V15.0613ZM22.9376 15.9948C22.6913 16.5094 22.086 17.4883 21.6872 17.8681C21.7269 17.9777 21.6998 17.9311 21.7502 17.9941C21.9644 18.6869 22.6076 19.2299 22.9376 19.8674C23.0472 19.8283 23.0006 19.8554 23.0636 19.8044C23.5713 19.2935 23.795 18.4929 24.314 17.9934C24.2743 17.8838 24.3014 17.9304 24.251 17.8674C24.1553 17.5487 23.1984 16.0968 22.9376 15.9948ZM22.8117 23.1126C22.9803 23.1138 23.1482 23.1349 23.3118 23.1756L23.3748 23.3646C23.5443 23.5945 23.3956 23.8515 23.1858 23.9264C22.9553 24.0952 22.6983 23.9472 22.6233 23.7375C22.5194 23.5838 22.5849 23.4093 22.6233 23.2373C22.6928 23.2067 22.7566 23.1648 22.8123 23.1132L22.8117 23.1126Z" fill="black"/>
</svg>
