<svg width="16" height="17" viewBox="0 0 16 17" fill="none" xmlns="http://www.w3.org/2000/svg">
<path d="M4.75325 11.537C3.8427 10.6098 3.12081 9.5067 2.6294 8.2917C2.138 7.0767 1.88683 5.77392 1.89046 4.45881C1.88974 4.34531 1.85214 4.23529 1.7836 4.14611C1.71506 4.05692 1.61947 3.99365 1.51193 3.96627C1.40438 3.93888 1.291 3.94895 1.18966 3.99488C1.08832 4.04082 1.0048 4.12 0.952272 4.21993C0.135746 5.78751 -0.167203 7.58237 0.0881204 9.33971C0.343444 11.0971 1.14352 12.7238 2.3703 13.98C3.59709 15.2361 5.18561 16.0552 6.90151 16.3163C8.6174 16.5773 10.3698 16.2666 11.9001 15.43C11.9979 15.3761 12.0753 15.2903 12.1201 15.1862C12.1649 15.0822 12.1746 14.9658 12.1475 14.8555C12.1204 14.7452 12.0582 14.6473 11.9707 14.5773C11.8831 14.5073 11.7753 14.4692 11.6643 14.4691C10.3802 14.4728 9.10823 14.2156 7.92193 13.7123C6.73563 13.209 5.65861 12.4696 4.75325 11.537Z" fill="#F580EB"/>
<path d="M13.983 6.80277C14.1846 6.809 14.3864 6.8021 14.5871 6.78211C14.7762 6.76414 14.9586 6.70149 15.1201 6.59908C15.2815 6.49667 15.4175 6.3573 15.5175 6.19193C15.6174 6.02656 15.6785 5.8397 15.696 5.64604C15.7135 5.45238 15.6869 5.25721 15.6183 5.07587C15.2166 4.03841 14.6155 3.09419 13.8506 2.29926C13.0858 1.50433 12.1728 0.874906 11.1658 0.448346C10.9929 0.375437 10.8059 0.344208 10.6193 0.357069C10.4327 0.369931 10.2515 0.426539 10.0896 0.522524C9.92777 0.618508 9.78963 0.751302 9.68585 0.910652C9.58208 1.07 9.51544 1.25165 9.4911 1.44156C9.4582 1.72401 9.44911 2.00884 9.46392 2.29289C9.53337 3.48605 10.0351 4.6097 10.871 5.44385C11.7069 6.27801 12.8166 6.76261 13.983 6.80277Z" fill="#F580EB"/>
<path d="M13.9026 8.5233C13.0357 8.49201 12.1842 8.2791 11.4008 7.89771C10.6173 7.51632 9.91846 6.97455 9.34736 6.30582C8.77626 5.63709 8.34501 4.85559 8.08024 4.00955C7.81546 3.1635 7.72277 2.27086 7.80789 1.38671C7.82795 1.18826 7.80161 0.987766 7.73104 0.801805C7.66048 0.615845 7.54772 0.449754 7.40208 0.317261C7.25643 0.184767 7.0821 0.0896757 6.89347 0.0398454C6.70485 -0.00998497 6.50735 -0.0131233 6.31731 0.0306898C5.90932 0.124477 5.50915 0.250888 5.12046 0.408758C4.89695 0.500436 4.69414 0.638002 4.52449 0.812984C4.35485 0.987966 4.22197 1.19666 4.13405 1.42622C3.55715 2.92812 3.42096 4.56985 3.74219 6.1499C4.06343 7.72995 4.82812 9.17956 5.94239 10.3208C7.05666 11.462 8.47203 12.2452 10.0148 12.5742C11.5575 12.9032 13.1604 12.7637 14.6269 12.1729C14.8504 12.0836 15.0537 11.9482 15.2241 11.7752C15.3945 11.6022 15.5285 11.3952 15.6177 11.1671C15.7609 10.8009 15.8782 10.4245 15.9684 10.041C16.0125 9.84651 16.0107 9.64411 15.9632 9.45049C15.9158 9.25687 15.824 9.07761 15.6955 8.92754C15.5669 8.77747 15.4054 8.6609 15.2241 8.58749C15.0429 8.51407 14.8471 8.48591 14.6532 8.50535C14.4035 8.52627 14.1529 8.53226 13.9026 8.5233Z" fill="#F580EB"/>
</svg>
