<svg xmlns="http://www.w3.org/2000/svg" viewBox="0 0 854.73 182.71"><defs><style>.cls-1{fill:#fff;}</style></defs><g id="Layer_2" data-name="Layer 2"><g id="Layer_1-2" data-name="Layer 1"><path class="cls-1" d="M54.23,128.48A110.71,110.71,0,0,1,21.58,49.66h0A5.69,5.69,0,0,0,10.88,47,92.27,92.27,0,0,0,135.74,171.83a5.69,5.69,0,0,0-2.69-10.7h0A110.71,110.71,0,0,1,54.23,128.48Z"/><path class="cls-1" d="M159.5,75.76a54.27,54.27,0,0,0,6.89-.23,14,14,0,0,0,11.76-19A92.77,92.77,0,0,0,127.37,5a13.92,13.92,0,0,0-19.1,11.06,55.19,55.19,0,0,0-.31,9.48A53.43,53.43,0,0,0,159.5,75.76Z"/><path class="cls-1" d="M158.56,94.92A72.41,72.41,0,0,1,89.05,15.45a14,14,0,0,0-17-15.1A91.22,91.22,0,0,0,58.4,4.56,20.12,20.12,0,0,0,47.15,15.89,92.29,92.29,0,0,0,166.82,135.56a20,20,0,0,0,11.3-11.2,91,91,0,0,0,4-12.54,14,14,0,0,0-15-17.1A73.49,73.49,0,0,1,158.56,94.92Z"/><path class="cls-1" d="M267.38,84.43a5.83,5.83,0,0,1-4.42-2,13.45,13.45,0,0,0-1.87-1.82,20.36,20.36,0,0,0-4.78-2.87,27.8,27.8,0,0,0-5.78-1.78,32.49,32.49,0,0,0-6.38-.61,33.35,33.35,0,0,0-8.87,1.13,19.88,19.88,0,0,0-7.08,3.48,16,16,0,0,0-4.69,6,20.47,20.47,0,0,0-1.69,8.69,20.47,20.47,0,0,0,1.69,8.69,16,16,0,0,0,4.69,6,19.88,19.88,0,0,0,7.08,3.48,33.35,33.35,0,0,0,8.87,1.13,32.49,32.49,0,0,0,6.38-.61,27.8,27.8,0,0,0,5.78-1.78,20.36,20.36,0,0,0,4.78-2.87,13.45,13.45,0,0,0,1.87-1.82,5.83,5.83,0,0,1,4.42-2h4.4a5.79,5.79,0,0,1,4.42,9.56l-.08.08a33.12,33.12,0,0,1-8.77,7,43.89,43.89,0,0,1-11,4.22,52.71,52.71,0,0,1-26.89-.66,39.89,39.89,0,0,1-12.64-6.16A31.37,31.37,0,0,1,208,108.63a28.46,28.46,0,0,1-3.35-14,28.46,28.46,0,0,1,3.35-14,31.37,31.37,0,0,1,8.86-10.13,40.13,40.13,0,0,1,12.64-6.17,52,52,0,0,1,14.69-2.08,53.2,53.2,0,0,1,12.2,1.39,42,42,0,0,1,11,4.21,34.12,34.12,0,0,1,8.77,7l.08.08a5.79,5.79,0,0,1-4.42,9.56Z"/><path class="cls-1" d="M335.12,98.68a15.94,15.94,0,0,0-.57-4.3,8.72,8.72,0,0,0-1.91-3.56A9.44,9.44,0,0,0,329,88.39a16.65,16.65,0,0,0-6-.92q-9.13,0-13.69,3.31t-4.56,10.94v17.84a5.45,5.45,0,0,1-5.45,5.45h-5.35a5.45,5.45,0,0,1-5.45-5.45v-56a5.45,5.45,0,0,1,5.45-5.45h5.35a5.45,5.45,0,0,1,5.45,5.45V74.38a5.48,5.48,0,0,0,7.93,4.88A32.56,32.56,0,0,1,327,76.35a38.67,38.67,0,0,1,11.52,1.48A18.3,18.3,0,0,1,346,82.17a16.33,16.33,0,0,1,4.09,7,33.9,33.9,0,0,1,1.21,9.47v20.88a5.45,5.45,0,0,1-5.45,5.45h-5.26a5.45,5.45,0,0,1-5.45-5.45Z"/><path class="cls-1" d="M358,101.72a22.18,22.18,0,0,1,1.78-8.25,24.35,24.35,0,0,1,5.69-8.25,31,31,0,0,1,10.08-6.35,39.31,39.31,0,0,1,14.86-2.52,35.83,35.83,0,0,1,14.43,2.57,26.78,26.78,0,0,1,9.38,6.56,24,24,0,0,1,5.08,8.82,32.27,32.27,0,0,1,1.41,6.91,2.31,2.31,0,0,1-2.35,2.51H376.14a2.37,2.37,0,0,0-2.2,3.22A11.3,11.3,0,0,0,375,109a13.09,13.09,0,0,0,3.78,3.78,17.71,17.71,0,0,0,5.3,2.31,24.94,24.94,0,0,0,6.3.78,26.93,26.93,0,0,0,9.65-1.48,10.62,10.62,0,0,0,4.94-3.63,2.33,2.33,0,0,1,1.9-1H417a2.35,2.35,0,0,1,2.07,3.5,27,27,0,0,1-2.38,3.4,24.15,24.15,0,0,1-6.39,5.43,33.39,33.39,0,0,1-8.77,3.57,44.26,44.26,0,0,1-11.17,1.3,45.44,45.44,0,0,1-14.16-2,29.65,29.65,0,0,1-10.12-5.43,22.32,22.32,0,0,1-6.09-8A24,24,0,0,1,358,101.72Zm32.41-14.25a22.9,22.9,0,0,0-10,2,13.42,13.42,0,0,0-3.05,2,2.36,2.36,0,0,0,1.53,4.15h22.07a2.35,2.35,0,0,0,1.65-4l0,0a17.14,17.14,0,0,0-4.65-2.83A19.29,19.29,0,0,0,390.38,87.47Z"/><path class="cls-1" d="M458.33,115.89a25.11,25.11,0,0,0,8.95-1.48,11,11,0,0,0,4.64-3.14,4.16,4.16,0,0,1,3.22-1.46h6.23a4.23,4.23,0,0,1,3.34,6.84l0,.06a24.15,24.15,0,0,1-6.39,5.43,33.46,33.46,0,0,1-8.78,3.57,44.18,44.18,0,0,1-11.16,1.3,45.44,45.44,0,0,1-14.16-2A29.79,29.79,0,0,1,434,119.58a22.4,22.4,0,0,1-6.08-8c-.12-.27-.24-.54-.35-.82a23.4,23.4,0,0,1,5.16-25.08,26,26,0,0,1,2.05-1.86A32,32,0,0,1,445,78.35a42,42,0,0,1,13.3-2,46.32,46.32,0,0,1,11.56,1.31,32.37,32.37,0,0,1,8.77,3.56,22.76,22.76,0,0,1,6.21,5.43l.07.08a4.27,4.27,0,0,1-3.44,6.83h-6.39a4.2,4.2,0,0,1-3.2-1.44A11.2,11.2,0,0,0,467.32,89a24.32,24.32,0,0,0-9-1.53q-7.65,0-11.64,4a13.82,13.82,0,0,0-4,10.29,14.08,14.08,0,0,0,1.08,5.52,13.2,13.2,0,0,0,3.13,4.48,15.32,15.32,0,0,0,4.91,3A17.75,17.75,0,0,0,458.33,115.89Z"/><path class="cls-1" d="M519.66,111.19l-6,5.23a4.91,4.91,0,0,0-1.69,3.7h0a4.89,4.89,0,0,1-4.89,4.89h-6.47a4.89,4.89,0,0,1-4.89-4.89V63a4.89,4.89,0,0,1,4.89-4.89h6.47A4.89,4.89,0,0,1,511.94,63V89.83a4.89,4.89,0,0,0,8.13,3.67l15.77-13.92a4.88,4.88,0,0,1,3.24-1.23h3.77a4.9,4.9,0,0,1,3.3,8.51l-9.67,8.81a4.9,4.9,0,0,0-.16,7.07l13.88,13.93a4.89,4.89,0,0,1-3.47,8.34h-4.47a4.89,4.89,0,0,1-3.42-1.39l-12.56-12.24A4.89,4.89,0,0,0,519.66,111.19Z"/><path class="cls-1" d="M602.39,127q-11.64,0-18.8-5.73a2.1,2.1,0,0,0-3.44,1.62v17.63a4.73,4.73,0,0,1-4.73,4.73h-6.76a4.76,4.76,0,0,1-4.76-4.76v-57a5.1,5.1,0,0,1,5.1-5.11h9a2.11,2.11,0,0,1,2.11,2.11h0a2.1,2.1,0,0,0,3.44,1.62q7.17-5.73,18.8-5.73a38.6,38.6,0,0,1,11.51,1.48,18.28,18.28,0,0,1,7.52,4.34,16.21,16.21,0,0,1,4.08,7,33.52,33.52,0,0,1,1.22,9.47v6.09a33,33,0,0,1-1.22,9.42,16.13,16.13,0,0,1-4.08,7,18.17,18.17,0,0,1-7.52,4.34A38.28,38.28,0,0,1,602.39,127Zm-4-11.12a17.46,17.46,0,0,0,6-.87,9.06,9.06,0,0,0,3.69-2.39,8.72,8.72,0,0,0,1.91-3.56,15.94,15.94,0,0,0,.57-4.3V98.68a15.94,15.94,0,0,0-.57-4.3,8.72,8.72,0,0,0-1.91-3.56,9.44,9.44,0,0,0-3.69-2.43,16.67,16.67,0,0,0-6-.92q-9.12,0-13.68,3.31t-4.56,10.94Q580.15,115.9,598.39,115.89Z"/><path class="cls-1" d="M664.17,127a39.09,39.09,0,0,1-12.82-2,31.83,31.83,0,0,1-10-5.43,24.16,24.16,0,0,1-6.43-8,22.07,22.07,0,0,1-2.26-9.82,20.7,20.7,0,0,1,2.48-9.86A25.75,25.75,0,0,1,642,83.78a33.67,33.67,0,0,1,10-5.43,36.81,36.81,0,0,1,12.17-2,38.8,38.8,0,0,1,12.73,2,31.23,31.23,0,0,1,9.9,5.43,24.63,24.63,0,0,1,6.43,8.08,21.63,21.63,0,0,1-.84,20.94,25.75,25.75,0,0,1-6,6.78,33.08,33.08,0,0,1-10,5.43A37,37,0,0,1,664.17,127ZM649,101.72a15.2,15.2,0,0,0,1,5.52,12.61,12.61,0,0,0,3,4.48,14.29,14.29,0,0,0,4.78,3,17.37,17.37,0,0,0,6.47,1.13A19,19,0,0,0,671,114.8a12.71,12.71,0,0,0,4.73-3,12,12,0,0,0,2.78-4.51,16.73,16.73,0,0,0,.91-5.57,17.33,17.33,0,0,0-.86-5.51,12.13,12.13,0,0,0-2.74-4.52A13.18,13.18,0,0,0,671,88.6a18.77,18.77,0,0,0-6.86-1.13q-7.65,0-11.43,4A14.27,14.27,0,0,0,649,101.72Z"/><path class="cls-1" d="M702.84,64.71h0a6.59,6.59,0,0,1,6.6-6.6h3a6.59,6.59,0,0,1,6.6,6.6h0a6.59,6.59,0,0,1-6.6,6.6h-3A6.59,6.59,0,0,1,702.84,64.71Zm0,53.7V85a6.6,6.6,0,0,1,6.6-6.6h3a6.6,6.6,0,0,1,6.6,6.6v33.46a6.6,6.6,0,0,1-6.6,6.6h-3A6.6,6.6,0,0,1,702.84,118.41Z"/><path class="cls-1" d="M775.3,98.68a16.35,16.35,0,0,0-.56-4.3,8.86,8.86,0,0,0-1.92-3.56,9.29,9.29,0,0,0-3.69-2.43,16.65,16.65,0,0,0-6-.92q-9.14,0-13.69,3.31t-4.56,10.94v18a5.27,5.27,0,0,1-5.27,5.27h-5.84a5.14,5.14,0,0,1-5.14-5.13V84a5.61,5.61,0,0,1,5.61-5.61h8.53a2.1,2.1,0,0,1,2.11,2.11h0a2.1,2.1,0,0,0,3.44,1.62q7.17-5.73,18.8-5.73a38.67,38.67,0,0,1,11.52,1.48,18.3,18.3,0,0,1,7.51,4.34,16.33,16.33,0,0,1,4.09,7,33.9,33.9,0,0,1,1.21,9.47V119.4a5.61,5.61,0,0,1-5.61,5.61H781a5.67,5.67,0,0,1-5.67-5.67Z"/><path class="cls-1" d="M822.13,104.77a38.32,38.32,0,0,0,.31,5.51,3.84,3.84,0,0,0,1.78,2.87,9.9,9.9,0,0,0,4.52,1.09c1.11.06,2.48.11,4.11.14a4.56,4.56,0,0,1,4.49,4.56v1.5a4.57,4.57,0,0,1-4.6,4.56q-4.8,0-8.48-.12a69.92,69.92,0,0,1-8.86-.69A14.36,14.36,0,0,1,810,122.4a7.11,7.11,0,0,1-2.82-3.47,18,18,0,0,1-1.09-5.74c-.12-2.31-.17-5.12-.17-8.42V92a4.58,4.58,0,0,0-4.57-4.57h0a4.56,4.56,0,0,1-4.56-4.56h0a4.56,4.56,0,0,1,4.56-4.56h0a4.57,4.57,0,0,0,4.57-4.56V62.67a4.56,4.56,0,0,1,4.56-4.56h7.12a4.56,4.56,0,0,1,4.56,4.56V73.79a4.57,4.57,0,0,0,4.57,4.56h6.08a4.56,4.56,0,0,1,4.56,4.56h0a4.56,4.56,0,0,1-4.56,4.56H826.7A4.58,4.58,0,0,0,822.13,92Z"/><path class="cls-1" d="M841,83.65a4.45,4.45,0,0,1,.55-2.16A5.56,5.56,0,0,1,843,79.72a7.68,7.68,0,0,1,2.19-1.19,8.11,8.11,0,0,1,2.66-.43,8.51,8.51,0,0,1,2.79.43,7.19,7.19,0,0,1,2.17,1.19,5.31,5.31,0,0,1,1.4,1.77,4.84,4.84,0,0,1,.45,2.92,3.18,3.18,0,0,1-.19.75,5.57,5.57,0,0,1-1.75,2.39,7.26,7.26,0,0,1-2.18,1.19,8.16,8.16,0,0,1-2.69.44,8.57,8.57,0,0,1-2.8-.44,7,7,0,0,1-2.18-1.19,5.34,5.34,0,0,1-1.4-1.75A4.85,4.85,0,0,1,841,83.65Zm6.88-4.45a5.61,5.61,0,0,0-3.61,1.3,4.35,4.35,0,0,0-1.1,1.42,3.82,3.82,0,0,0-.4,1.73,3.78,3.78,0,0,0,.4,1.72,4.27,4.27,0,0,0,1.1,1.4,5.65,5.65,0,0,0,5.6,1,5.32,5.32,0,0,0,1.62-1,4.38,4.38,0,0,0,1.09-1.4,3.78,3.78,0,0,0,.4-1.72,3.82,3.82,0,0,0-.4-1.73,4.46,4.46,0,0,0-1.09-1.42,5.53,5.53,0,0,0-1.62-1A5.62,5.62,0,0,0,847.86,79.2Zm.12,7.2a5.17,5.17,0,0,1-1.56-.21,3.65,3.65,0,0,1-1.11-.59,2.38,2.38,0,0,1-.67-.88,2.73,2.73,0,0,1-.22-1.07,2.46,2.46,0,0,1,.26-1.09,2.64,2.64,0,0,1,.72-.88,3.72,3.72,0,0,1,1.12-.59,4.81,4.81,0,0,1,1.46-.22,3.94,3.94,0,0,1,2.21.53,3,3,0,0,1,.95,1,.24.24,0,0,1-.21.36H849.7a.23.23,0,0,1-.19-.1,1.15,1.15,0,0,0-.55-.4,2.72,2.72,0,0,0-1-.16,1.75,1.75,0,0,0-1.29.43,1.49,1.49,0,0,0-.44,1,1.57,1.57,0,0,0,.27.94,1.66,1.66,0,0,0,1.46.68,2.86,2.86,0,0,0,1-.16,1.39,1.39,0,0,0,.56-.41.23.23,0,0,1,.19-.1h1.22a.24.24,0,0,1,.21.37,2.78,2.78,0,0,1-1,1A4,4,0,0,1,848,86.4Z"/></g></g></svg>