<svg width="220" height="24" viewBox="0 0 220 24" fill="none" xmlns="http://www.w3.org/2000/svg">
<path d="M12.4861 0.000104447C12.2498 0.00364983 12.0247 0.0970363 11.8601 0.259768C11.6954 0.4225 11.6048 0.641282 11.6081 0.868097V3.43695C11.6064 3.55042 11.6282 3.66308 11.6723 3.76837C11.7164 3.87367 11.7818 3.9695 11.8648 4.05031C11.9478 4.13112 12.0467 4.19529 12.1557 4.23908C12.2648 4.28288 12.3818 4.30543 12.5 4.30543C12.6182 4.30543 12.7352 4.28288 12.8443 4.23908C12.9533 4.19529 13.0522 4.13112 13.1352 4.05031C13.2182 3.9695 13.2836 3.87367 13.3277 3.76837C13.3718 3.66308 13.3936 3.55042 13.3919 3.43695V0.868097C13.3936 0.753535 13.3713 0.639823 13.3263 0.533695C13.2813 0.427566 13.2146 0.33118 13.1302 0.250243C13.0457 0.169306 12.9452 0.105464 12.8345 0.0624978C12.7239 0.0195318 12.6054 -0.00168486 12.4861 0.000104447ZM4.29128 3.26469C4.11399 3.26507 3.94083 3.31615 3.79392 3.41143C3.64701 3.5067 3.533 3.64184 3.46645 3.79959C3.39989 3.95735 3.38382 4.13056 3.42027 4.29713C3.45672 4.46369 3.54404 4.61605 3.67109 4.73476L5.563 6.55102C5.64519 6.6332 5.74363 6.69881 5.85257 6.74401C5.9615 6.78921 6.07873 6.81308 6.19739 6.81424C6.31606 6.8154 6.43377 6.79382 6.54364 6.75075C6.6535 6.70769 6.75332 6.64402 6.83723 6.56346C6.92114 6.4829 6.98747 6.38708 7.03232 6.28161C7.07718 6.17613 7.09966 6.06313 7.09845 5.94921C7.09725 5.83529 7.07238 5.72274 7.0253 5.61817C6.97822 5.51359 6.90987 5.41908 6.82427 5.34018L4.93236 3.52392C4.84904 3.44169 4.74935 3.37637 4.63923 3.33184C4.5291 3.28731 4.41077 3.26448 4.29128 3.26469ZM20.6809 3.26469C20.4491 3.27132 20.2292 3.3643 20.0676 3.52392L18.1757 5.34018C18.0901 5.41909 18.0218 5.51359 17.9747 5.61817C17.9276 5.72274 17.9028 5.83529 17.9016 5.94921C17.9003 6.06313 17.9228 6.17613 17.9677 6.2816C18.0125 6.38708 18.0789 6.4829 18.1628 6.56346C18.2467 6.64401 18.3465 6.70769 18.4564 6.75075C18.5662 6.79381 18.6839 6.8154 18.8026 6.81424C18.9213 6.81308 19.0385 6.7892 19.1474 6.74401C19.2564 6.69881 19.3548 6.6332 19.437 6.55102L21.3289 4.73476C21.4578 4.61448 21.5458 4.45963 21.5815 4.2905C21.6171 4.12137 21.5987 3.94584 21.5286 3.78693C21.4586 3.62801 21.3402 3.49312 21.1889 3.39993C21.0376 3.30675 20.8605 3.25961 20.6809 3.26469ZM12.5 6.00581C10.8441 6.00581 9.25599 6.63732 8.08507 7.76141C6.91416 8.8855 6.25635 10.4101 6.25635 11.9998C6.25635 13.5895 6.91416 15.1141 8.08507 16.2382C9.25599 17.3623 10.8441 17.9938 12.5 17.9938C14.1559 17.9938 15.744 17.3623 16.9149 16.2382C18.0858 15.1141 18.7436 13.5895 18.7436 11.9998C18.7436 10.4101 18.0858 8.8855 16.9149 7.76141C15.744 6.63732 14.1559 6.00581 12.5 6.00581ZM0.904653 11.1435C0.786459 11.1419 0.669112 11.1629 0.55943 11.2052C0.449749 11.2475 0.349921 11.3103 0.265748 11.39C0.181575 11.4697 0.114736 11.5646 0.0691145 11.6693C0.0234933 11.774 0 11.8863 0 11.9998C0 12.1133 0.0234933 12.2256 0.0691145 12.3303C0.114736 12.435 0.181575 12.5299 0.265748 12.6096C0.349921 12.6893 0.449749 12.7521 0.55943 12.7944C0.669112 12.8367 0.786459 12.8577 0.904653 12.8561H3.5805C3.6987 12.8577 3.81604 12.8367 3.92573 12.7944C4.03541 12.7521 4.13524 12.6893 4.21941 12.6096C4.30358 12.5299 4.37042 12.435 4.41604 12.3303C4.46166 12.2256 4.48516 12.1133 4.48516 11.9998C4.48516 11.8863 4.46166 11.774 4.41604 11.6693C4.37042 11.5646 4.30358 11.4697 4.21941 11.39C4.13524 11.3103 4.03541 11.2475 3.92573 11.2052C3.81604 11.1629 3.6987 11.1419 3.5805 11.1435H0.904653ZM21.4195 11.1435C21.3013 11.1419 21.184 11.1629 21.0743 11.2052C20.9646 11.2475 20.8648 11.3103 20.7806 11.39C20.6964 11.4697 20.6296 11.5646 20.584 11.6693C20.5383 11.774 20.5148 11.8863 20.5148 11.9998C20.5148 12.1133 20.5383 12.2256 20.584 12.3303C20.6296 12.435 20.6964 12.5299 20.7806 12.6096C20.8648 12.6893 20.9646 12.7521 21.0743 12.7944C21.184 12.8367 21.3013 12.8577 21.4195 12.8561H24.0953C24.2135 12.8577 24.3309 12.8367 24.4406 12.7944C24.5503 12.7521 24.6501 12.6893 24.7343 12.6096C24.8184 12.5299 24.8853 12.435 24.9309 12.3303C24.9765 12.2256 25 12.1133 25 11.9998C25 11.8863 24.9765 11.774 24.9309 11.6693C24.8853 11.5646 24.8184 11.4697 24.7343 11.39C24.6501 11.3103 24.5503 11.2475 24.4406 11.2052C24.3309 11.1629 24.2135 11.1419 24.0953 11.1435H21.4195ZM6.17622 17.1894C5.94449 17.196 5.72455 17.289 5.563 17.4486L3.67109 19.2649C3.58549 19.3438 3.51715 19.4383 3.47007 19.5428C3.42299 19.6474 3.39812 19.76 3.39691 19.8739C3.39571 19.9878 3.41819 20.1008 3.46305 20.2063C3.5079 20.3118 3.57423 20.4076 3.65814 20.4881C3.74205 20.5687 3.84186 20.6324 3.95173 20.6754C4.0616 20.7185 4.17931 20.7401 4.29797 20.7389C4.41664 20.7378 4.53387 20.7139 4.6428 20.6687C4.75173 20.6235 4.85017 20.5579 4.93236 20.4757L6.82427 18.6594C6.95316 18.5392 7.0412 18.3843 7.07684 18.2152C7.11248 18.046 7.09407 17.8705 7.02401 17.7116C6.95396 17.5527 6.83553 17.4178 6.68425 17.3246C6.53296 17.2314 6.35589 17.1843 6.17622 17.1894ZM18.7977 17.1894C18.6202 17.1894 18.4468 17.2403 18.2996 17.3354C18.1525 17.4305 18.0382 17.5657 17.9714 17.7235C17.9046 17.8813 17.8884 18.0547 17.9248 18.2214C17.9612 18.3881 18.0486 18.5406 18.1757 18.6594L20.0676 20.4757C20.1498 20.5579 20.2483 20.6235 20.3572 20.6687C20.4661 20.7139 20.5834 20.7377 20.702 20.7389C20.8207 20.7401 20.9384 20.7185 21.0483 20.6754C21.1581 20.6324 21.2579 20.5687 21.3419 20.4881C21.4258 20.4076 21.4921 20.3117 21.5369 20.2063C21.5818 20.1008 21.6043 19.9878 21.6031 19.8739C21.6019 19.76 21.577 19.6474 21.5299 19.5428C21.4828 19.4383 21.4145 19.3438 21.3289 19.2649L19.437 17.4486C19.3539 17.3666 19.2545 17.3014 19.1447 17.2568C19.0349 17.2123 18.9169 17.1894 18.7977 17.1894ZM12.4861 19.6947C12.2498 19.6982 12.0247 19.7916 11.8601 19.9543C11.6954 20.1171 11.6048 20.3358 11.6081 20.5627V23.1315C11.6064 23.245 11.6282 23.3576 11.6723 23.4629C11.7164 23.5682 11.7818 23.6641 11.8648 23.7449C11.9478 23.8257 12.0467 23.8899 12.1557 23.9336C12.2648 23.9774 12.3818 24 12.5 24C12.6182 24 12.7352 23.9774 12.8443 23.9336C12.9533 23.8899 13.0522 23.8257 13.1352 23.7449C13.2182 23.6641 13.2836 23.5682 13.3277 23.4629C13.3718 23.3576 13.3936 23.245 13.3919 23.1315V20.5627C13.3936 20.4481 13.3713 20.3344 13.3263 20.2283C13.2813 20.1221 13.2146 20.0257 13.1302 19.9448C13.0457 19.8639 12.9452 19.8 12.8345 19.7571C12.7239 19.7141 12.6054 19.6929 12.4861 19.6947Z" fill="#F580EB"/>
<path d="M104.095 1.00011C103.857 1.00375 103.63 1.09967 103.464 1.26682C103.298 1.43396 103.206 1.65868 103.209 1.89165V2.77116C103.208 2.88771 103.23 3.00342 103.274 3.11157C103.319 3.21972 103.385 3.31816 103.468 3.40116C103.552 3.48416 103.652 3.55007 103.762 3.59505C103.872 3.64004 103.99 3.6632 104.109 3.6632C104.228 3.6632 104.346 3.64004 104.456 3.59505C104.566 3.55007 104.666 3.48416 104.75 3.40116C104.833 3.31816 104.899 3.21972 104.944 3.11157C104.988 3.00342 105.01 2.88771 105.009 2.77116V1.89165C105.01 1.77398 104.988 1.65718 104.942 1.54817C104.897 1.43917 104.83 1.34016 104.745 1.25703C104.659 1.1739 104.558 1.10832 104.446 1.06419C104.335 1.02006 104.215 0.998269 104.095 1.00011ZM99.0102 3.06319C98.831 3.06322 98.656 3.11557 98.5074 3.21351C98.3589 3.31145 98.2436 3.45053 98.1764 3.61292C98.1092 3.77532 98.0931 3.95363 98.1303 4.12501C98.1674 4.29639 98.256 4.45303 98.3847 4.57485L99.0208 5.1967C99.1037 5.28111 99.2029 5.3485 99.3128 5.39492C99.4227 5.44134 99.5409 5.46587 99.6606 5.46706C99.7803 5.46825 99.899 5.44608 100.01 5.40185C100.121 5.35762 100.221 5.29222 100.306 5.20948C100.391 5.12673 100.457 5.02831 100.503 4.91998C100.548 4.81164 100.571 4.69557 100.569 4.57856C100.568 4.46155 100.543 4.34595 100.496 4.23854C100.448 4.13112 100.379 4.03405 100.293 3.95301L99.6568 3.33116C99.5729 3.24639 99.4724 3.17898 99.3613 3.13295C99.2503 3.08691 99.1309 3.06319 99.0102 3.06319ZM109.18 3.06491C108.946 3.07171 108.724 3.16721 108.561 3.33116L107.925 3.95301C107.8 4.07052 107.712 4.22096 107.672 4.38618C107.633 4.55139 107.642 4.72433 107.701 4.88413C107.759 5.04394 107.864 5.18378 108.002 5.28679C108.14 5.3898 108.305 5.45158 108.479 5.46467C108.509 5.46676 108.539 5.46733 108.57 5.46639C108.807 5.46091 109.033 5.36397 109.197 5.1967L109.833 4.57485C109.963 4.45131 110.052 4.29226 110.088 4.11854C110.124 3.94482 110.105 3.76453 110.035 3.60131C109.964 3.43808 109.845 3.29953 109.692 3.20382C109.539 3.1081 109.361 3.05968 109.18 3.06491ZM104.109 5.40971C102.122 5.40971 100.511 6.98492 100.511 8.92776C100.511 10.6015 101.708 11.996 103.31 12.3513C104.253 10.9679 105.796 10.0339 107.565 9.85709C107.649 9.55982 107.707 9.25143 107.707 8.92776C107.707 6.98492 106.096 5.40971 104.109 5.40971ZM96.9124 8.04825C96.7932 8.0466 96.6748 8.06813 96.5642 8.11159C96.4536 8.15505 96.3529 8.21957 96.268 8.30141C96.1831 8.38324 96.1157 8.48076 96.0697 8.58828C96.0237 8.69581 96 8.81121 96 8.92776C96 9.04432 96.0237 9.15972 96.0697 9.26725C96.1157 9.37477 96.1831 9.47229 96.268 9.55412C96.3529 9.63595 96.4536 9.70048 96.5642 9.74394C96.6748 9.7874 96.7932 9.80893 96.9124 9.80728H97.812C97.9312 9.80893 98.0495 9.7874 98.1601 9.74394C98.2708 9.70048 98.3714 9.63595 98.4563 9.55412C98.5412 9.47229 98.6086 9.37477 98.6546 9.26725C98.7006 9.15972 98.7243 9.04432 98.7243 8.92776C98.7243 8.81121 98.7006 8.69581 98.6546 8.58828C98.6086 8.48076 98.5412 8.38324 98.4563 8.30141C98.3714 8.21957 98.2708 8.15505 98.1601 8.11159C98.0495 8.06813 97.9312 8.0466 97.812 8.04825H96.9124ZM114.454 8.92776C113.433 8.92884 112.43 9.19121 111.545 9.68877C110.66 10.1863 109.924 10.9017 109.41 11.7639C109.005 11.634 108.583 11.5674 108.157 11.5663C107.122 11.5675 106.126 11.9565 105.375 12.6534C104.624 13.3503 104.175 14.302 104.12 15.3128C103.329 15.5838 102.643 16.0881 102.158 16.7561C101.673 17.4241 101.411 18.2228 101.41 19.0422C101.41 20.0919 101.837 21.0985 102.596 21.8408C103.355 22.583 104.385 23 105.458 23H118.952C120.026 23 121.055 22.583 121.814 21.8408C122.574 21.0985 123 20.0919 123 19.0422C122.999 18.217 122.734 17.4128 122.243 16.742C121.751 16.0711 121.058 15.5673 120.259 15.3008C120.286 15.083 120.3 14.864 120.301 14.6446C120.301 13.1284 119.685 11.6743 118.589 10.6022C117.492 9.53007 116.005 8.92776 114.454 8.92776ZM99.6392 12.3926C99.4055 12.3994 99.1837 12.4949 99.0208 12.6588L98.3847 13.2807C98.2984 13.3617 98.2295 13.4588 98.182 13.5662C98.1345 13.6736 98.1094 13.7892 98.1082 13.9062C98.107 14.0232 98.1297 14.1393 98.1749 14.2476C98.2201 14.356 98.287 14.4544 98.3717 14.5371C98.4563 14.6199 98.557 14.6853 98.6678 14.7295C98.7786 14.7738 98.8973 14.7959 99.017 14.7947C99.1366 14.7935 99.2549 14.769 99.3647 14.7226C99.4746 14.6762 99.5739 14.6088 99.6568 14.5244L100.293 13.9025C100.423 13.779 100.512 13.6199 100.548 13.4462C100.583 13.2725 100.565 13.0922 100.494 12.929C100.424 12.7657 100.304 12.6272 100.152 12.5315C99.999 12.4358 99.8204 12.3873 99.6392 12.3926Z" fill="#F580EB"/>
<path d="M45.4862 3.00011C45.2521 3.00368 45.0291 3.09775 44.866 3.26167C44.7029 3.42559 44.6131 3.64597 44.6164 3.87445V7.83006L43.4738 6.7148C43.3915 6.63218 43.293 6.5665 43.1842 6.52165C43.0754 6.4768 42.9585 6.45369 42.8404 6.45368C42.6646 6.45373 42.4929 6.50494 42.3471 6.60078C42.2012 6.69663 42.088 6.83274 42.0219 6.99171C41.9557 7.15069 41.9397 7.32532 41.9757 7.49326C42.0118 7.6612 42.0983 7.81483 42.2243 7.93451L44.8752 10.5222C45.041 10.6839 45.2657 10.7747 45.5 10.7747C45.7343 10.7747 45.959 10.6839 46.1248 10.5222L48.7757 7.93451C48.8605 7.85503 48.9282 7.75983 48.9749 7.65449C49.0215 7.54914 49.0462 7.43578 49.0473 7.32102C49.0485 7.20627 49.0263 7.09243 48.9818 6.98619C48.9374 6.87994 48.8717 6.78342 48.7886 6.70227C48.7054 6.62112 48.6065 6.55698 48.4977 6.5136C48.3888 6.47023 48.2722 6.44848 48.1547 6.44965C48.0371 6.45082 47.921 6.47487 47.813 6.5204C47.7051 6.56593 47.6076 6.63202 47.5262 6.7148L46.3836 7.83006V3.87445C46.3853 3.75905 46.3631 3.64451 46.3186 3.5376C46.274 3.4307 46.208 3.3336 46.1243 3.25207C46.0406 3.17054 45.941 3.10624 45.8314 3.06296C45.7218 3.01967 45.6044 2.9983 45.4862 3.00011ZM45.4862 13.3507C45.2521 13.3543 45.0291 13.4484 44.866 13.6123C44.7029 13.7762 44.6131 13.9966 44.6164 14.2251V15.2477C43.9777 15.329 43.3502 15.4233 42.7766 15.6604L42.2881 14.8349C42.2336 14.7308 42.1579 14.6386 42.0658 14.5639C41.9736 14.4892 41.8668 14.4336 41.7519 14.4004C41.637 14.3673 41.5164 14.3573 41.3974 14.371C41.2784 14.3847 41.1636 14.422 41.0598 14.4804C40.956 14.5388 40.8655 14.6172 40.7937 14.7109C40.7219 14.8045 40.6704 14.9114 40.6423 15.0251C40.6142 15.1388 40.61 15.2569 40.6301 15.3722C40.6501 15.4874 40.694 15.5976 40.759 15.6958L41.2647 16.5516C40.76 16.9277 40.3503 17.381 39.9651 17.8741L39.0556 17.3602C38.9551 17.3002 38.8432 17.2604 38.7267 17.2431C38.6102 17.2259 38.4913 17.2316 38.377 17.2599C38.2628 17.2881 38.1555 17.3385 38.0615 17.4078C37.9674 17.4772 37.8886 17.5642 37.8295 17.6638C37.7704 17.7633 37.7324 17.8734 37.7176 17.9876C37.7027 18.1017 37.7115 18.2176 37.7432 18.3284C37.775 18.4392 37.8291 18.5427 37.9024 18.6327C37.9758 18.7228 38.0668 18.7977 38.1702 18.8529L39.0728 19.3616C38.9476 19.6529 38.8478 19.953 38.7639 20.2629H34.8962C34.7791 20.2613 34.6629 20.2824 34.5542 20.3251C34.4456 20.3677 34.3467 20.431 34.2633 20.5112C34.1799 20.5915 34.1137 20.6871 34.0685 20.7925C34.0233 20.898 34 21.0112 34 21.1255C34 21.2398 34.0233 21.353 34.0685 21.4584C34.1137 21.5639 34.1799 21.6595 34.2633 21.7398C34.3467 21.82 34.4456 21.8833 34.5542 21.9259C34.6629 21.9685 34.7791 21.9896 34.8962 21.988H39.242C39.3391 22.004 39.4383 22.004 39.5354 21.988H51.4732C51.5692 22.0036 51.6672 22.0036 51.7632 21.988H56.1038C56.2209 21.9896 56.3371 21.9685 56.4458 21.9259C56.5544 21.8833 56.6533 21.82 56.7367 21.7398C56.8201 21.6595 56.8863 21.5639 56.9315 21.4584C56.9767 21.353 57 21.2398 57 21.1255C57 21.0112 56.9767 20.898 56.9315 20.7925C56.8863 20.6871 56.8201 20.5915 56.7367 20.5112C56.6533 20.431 56.5544 20.3677 56.4458 20.3251C56.3371 20.2824 56.2209 20.2613 56.1038 20.2629H52.2361C52.1522 19.953 52.0524 19.6529 51.9272 19.3616L52.8298 18.8529C52.9332 18.7977 53.0242 18.7228 53.0976 18.6327C53.1709 18.5427 53.225 18.4392 53.2568 18.3284C53.2885 18.2176 53.2973 18.1017 53.2824 17.9876C53.2676 17.8734 53.2296 17.7633 53.1705 17.6638C53.1114 17.5642 53.0326 17.4772 52.9385 17.4078C52.8445 17.3385 52.7372 17.2881 52.623 17.2599C52.5087 17.2316 52.3898 17.2259 52.2733 17.2431C52.1568 17.2604 52.0449 17.3002 51.9444 17.3602L51.0349 17.8741C50.6497 17.381 50.24 16.9277 49.7353 16.5516L50.241 15.6958C50.306 15.5976 50.3499 15.4874 50.3699 15.3722C50.39 15.2569 50.3858 15.1388 50.3577 15.0251C50.3296 14.9114 50.2781 14.8045 50.2063 14.7109C50.1345 14.6172 50.044 14.5388 49.9402 14.4804C49.8364 14.422 49.7216 14.3847 49.6026 14.371C49.4836 14.3572 49.363 14.3673 49.2481 14.4004C49.1332 14.4336 49.0264 14.4892 48.9342 14.5639C48.8421 14.6386 48.7664 14.7308 48.7119 14.8349L48.2234 15.6604C47.6498 15.4233 47.0223 15.329 46.3836 15.2477V14.2251C46.3853 14.1097 46.3631 13.9951 46.3186 13.8882C46.274 13.7813 46.208 13.6842 46.1243 13.6027C46.0406 13.5212 45.941 13.4569 45.8314 13.4136C45.7218 13.3703 45.6044 13.3489 45.4862 13.3507ZM45.4482 16.8228C45.4833 16.8249 45.5184 16.8249 45.5535 16.8228C47.8316 16.846 49.6746 18.2873 50.4032 20.2629H40.5968C41.3256 18.2868 43.1694 16.8453 45.4482 16.8228Z" fill="#F580EB"/>
<path d="M83.9031 16.8744C78.3563 16.8744 73.859 12.2845 73.859 6.62327C73.859 4.95746 74.2566 3.38989 74.9471 2C70.917 3.33265 68 7.19135 68 11.7488C68 17.41 72.4972 22 78.0441 22C81.9596 22 85.3427 19.7089 87 16.3721C86.0241 16.695 84.9845 16.8744 83.9031 16.8744Z" fill="#F580EB"/>
<path d="M145.712 2C144.708 2.00106 143.722 2.2603 142.851 2.75193C141.981 3.24356 141.257 3.95044 140.751 4.80227C140.353 4.674 139.938 4.60812 139.519 4.60708C138.536 4.6077 137.587 4.96598 136.857 5.61285C136.126 6.25973 135.665 7.1494 135.563 8.11035C134.586 8.21171 133.681 8.66439 133.024 9.38131C132.366 10.0982 132.001 11.0287 132 11.9938C132 12.5074 132.103 13.0159 132.303 13.4903C132.503 13.9648 132.796 14.3959 133.166 14.759C133.912 15.4924 134.925 15.9044 135.981 15.9044H151.019C152.075 15.9044 153.088 15.4924 153.834 14.759C154.581 14.0257 155 13.031 155 11.9938C154.999 11.0281 154.635 10.0968 153.977 9.37917C153.32 8.66155 152.415 8.20838 151.437 8.10695C151.452 7.95458 151.46 7.80169 151.462 7.64868C151.462 6.15055 150.856 4.71379 149.777 3.65446C148.699 2.59513 147.237 2 145.712 2ZM135.525 17.6306C135.29 17.6342 135.067 17.729 134.904 17.8941C134.741 18.0593 134.651 18.2813 134.654 18.5115V19.3805C134.652 19.4957 134.674 19.61 134.718 19.7169C134.761 19.8238 134.826 19.921 134.908 20.003C134.991 20.085 135.089 20.1502 135.197 20.1946C135.305 20.2391 135.421 20.2619 135.538 20.2619C135.656 20.2619 135.772 20.2391 135.88 20.1946C135.988 20.1502 136.086 20.085 136.168 20.003C136.251 19.921 136.316 19.8238 136.359 19.7169C136.403 19.61 136.425 19.4957 136.423 19.3805V18.5115C136.425 18.3952 136.403 18.2798 136.358 18.1721C136.313 18.0644 136.247 17.9666 136.163 17.8845C136.08 17.8023 135.98 17.7375 135.87 17.6939C135.761 17.6503 135.643 17.6288 135.525 17.6306ZM146.14 17.6306C145.906 17.6342 145.682 17.729 145.519 17.8941C145.356 18.0593 145.266 18.2813 145.269 18.5115V19.3805C145.268 19.4957 145.289 19.61 145.333 19.7169C145.377 19.8238 145.442 19.921 145.524 20.003C145.606 20.085 145.704 20.1502 145.812 20.1946C145.921 20.2391 146.037 20.2619 146.154 20.2619C146.271 20.2619 146.387 20.2391 146.495 20.1946C146.603 20.1502 146.702 20.085 146.784 20.003C146.866 19.921 146.931 19.8238 146.975 19.7169C147.018 19.61 147.04 19.4957 147.038 19.3805V18.5115C147.04 18.3952 147.018 18.2798 146.973 18.1721C146.929 18.0644 146.863 17.9666 146.779 17.8845C146.695 17.8023 146.595 17.7375 146.486 17.6939C146.376 17.6503 146.258 17.6288 146.14 17.6306ZM140.832 19.3687C140.598 19.3723 140.375 19.467 140.211 19.6322C140.048 19.7973 139.958 20.0194 139.962 20.2496V21.1186C139.96 21.2338 139.982 21.3481 140.025 21.4549C140.069 21.5618 140.134 21.6591 140.216 21.7411C140.298 21.8231 140.397 21.8882 140.505 21.9327C140.613 21.9771 140.729 22 140.846 22C140.963 22 141.079 21.9771 141.188 21.9327C141.296 21.8882 141.394 21.8231 141.476 21.7411C141.558 21.6591 141.623 21.5618 141.667 21.4549C141.711 21.3481 141.732 21.2338 141.731 21.1186V20.2496C141.732 20.1333 141.71 20.0179 141.666 19.9102C141.621 19.8025 141.555 19.7047 141.471 19.6225C141.387 19.5404 141.288 19.4756 141.178 19.432C141.068 19.3884 140.951 19.3668 140.832 19.3687ZM151.448 19.3687C151.213 19.3723 150.99 19.467 150.827 19.6322C150.664 19.7973 150.574 20.0194 150.577 20.2496V21.1186C150.575 21.2338 150.597 21.3481 150.641 21.4549C150.684 21.5618 150.749 21.6591 150.832 21.7411C150.914 21.8231 151.012 21.8882 151.12 21.9327C151.228 21.9771 151.344 22 151.462 22C151.579 22 151.695 21.9771 151.803 21.9327C151.911 21.8882 152.009 21.8231 152.092 21.7411C152.174 21.6591 152.239 21.5618 152.282 21.4549C152.326 21.3481 152.348 21.2338 152.346 21.1186V20.2496C152.348 20.1333 152.326 20.0179 152.281 19.9102C152.236 19.8025 152.17 19.7047 152.087 19.6225C152.003 19.5404 151.903 19.4756 151.793 19.432C151.684 19.3884 151.566 19.3668 151.448 19.3687Z" fill="#F580EB"/>
<path d="M179.115 2C177.085 2 175.315 3.08607 174.362 4.69857C173.992 4.58023 173.604 4.5 173.192 4.5C171.221 4.5 169.62 5.98156 169.424 7.8724C167.504 8.0649 166 9.64167 166 11.5833C166 13.6542 167.705 15.3333 169.808 15.3333H173.49L175.48 10.7598C175.815 9.99393 176.576 9.49837 177.42 9.49837C177.565 9.49837 177.711 9.51398 177.851 9.54232C178.828 9.74148 179.538 10.6 179.538 11.5833V13.6667H179.962C180.678 13.6667 181.34 14.0185 181.723 14.5977C181.876 14.8235 181.964 15.075 182.017 15.3333H184.192C186.295 15.3333 188 13.6542 188 11.5833C188 9.6475 186.505 8.07319 184.592 7.87402C184.605 7.72319 184.615 7.57083 184.615 7.41667C184.615 4.425 182.153 2 179.115 2ZM177.36 11.1699C177.217 11.1902 177.093 11.2827 177.033 11.4189L174.495 17.2523C174.44 17.3814 174.452 17.5287 174.531 17.6462C174.609 17.7628 174.742 17.8333 174.885 17.8333H177V21.5833C177 21.7808 177.141 21.9519 177.337 21.9919C177.367 21.9977 177.395 22 177.423 22C177.59 22 177.745 21.9036 177.813 21.7477L180.352 15.9144C180.407 15.7852 180.394 15.6372 180.315 15.5205C180.237 15.403 180.104 15.3333 179.962 15.3333H177.846V11.5833C177.846 11.3858 177.705 11.2148 177.509 11.1748C177.458 11.1644 177.408 11.1632 177.36 11.1699ZM169.371 16.9886C169.147 16.9921 168.934 17.0829 168.778 17.2413C168.621 17.3997 168.535 17.6126 168.538 17.8333V18.6667C168.537 18.7771 168.558 18.8867 168.599 18.9892C168.641 19.0917 168.703 19.1849 168.782 19.2636C168.861 19.3422 168.955 19.4047 169.058 19.4473C169.161 19.4899 169.272 19.5119 169.385 19.5119C169.497 19.5119 169.608 19.4899 169.711 19.4473C169.815 19.4047 169.908 19.3422 169.987 19.2636C170.066 19.1849 170.128 19.0917 170.17 18.9892C170.212 18.8867 170.232 18.7771 170.231 18.6667V17.8333C170.232 17.7218 170.211 17.6112 170.168 17.5079C170.126 17.4046 170.063 17.3108 169.982 17.232C169.902 17.1533 169.807 17.0911 169.702 17.0493C169.597 17.0075 169.485 16.9869 169.371 16.9886ZM184.602 18.6553C184.378 18.6587 184.164 18.7496 184.008 18.908C183.852 19.0663 183.766 19.2793 183.769 19.5V20.3333C183.768 20.4438 183.788 20.5534 183.83 20.6559C183.872 20.7583 183.934 20.8516 184.013 20.9303C184.092 21.0089 184.185 21.0713 184.289 21.114C184.392 21.1566 184.503 21.1785 184.615 21.1785C184.728 21.1785 184.839 21.1566 184.942 21.114C185.045 21.0713 185.139 21.0089 185.218 20.9303C185.297 20.8516 185.359 20.7583 185.401 20.6559C185.442 20.5534 185.463 20.4438 185.462 20.3333V19.5C185.463 19.3885 185.442 19.2778 185.399 19.1746C185.357 19.0713 185.293 18.9775 185.213 18.8987C185.133 18.8199 185.038 18.7578 184.933 18.716C184.828 18.6742 184.715 18.6535 184.602 18.6553Z" fill="#F580EB"/>
<path d="M210.487 1.0001C210.267 1.0036 210.057 1.09578 209.904 1.25642C209.75 1.41705 209.666 1.63301 209.669 1.8569V4.04265L208.594 2.94977C208.516 2.8688 208.424 2.80444 208.321 2.76049C208.219 2.71654 208.109 2.6939 207.998 2.69389C207.832 2.69393 207.671 2.74412 207.534 2.83804C207.396 2.93196 207.29 3.06534 207.228 3.22113C207.165 3.37691 207.15 3.54803 207.184 3.71261C207.218 3.87718 207.3 4.02772 207.418 4.145L209.669 6.4331V7.85779C208.77 8.04331 207.988 8.53486 207.402 9.20655L206.174 8.48512L205.351 5.35838C205.306 5.17925 205.205 5.01994 205.063 4.90485C204.921 4.78977 204.745 4.72524 204.564 4.72115C204.434 4.71826 204.305 4.7464 204.187 4.8033C204.07 4.8602 203.967 4.94428 203.888 5.04879C203.808 5.1533 203.754 5.27533 203.729 5.40507C203.704 5.53481 203.71 5.66866 203.745 5.79586L204.138 7.2899L202.276 6.19702C202.156 6.12383 202.02 6.08239 201.881 6.07651C201.853 6.07566 201.826 6.07621 201.798 6.07816C201.619 6.08953 201.448 6.15959 201.311 6.27786C201.175 6.39613 201.079 6.55626 201.039 6.73428C200.999 6.91231 201.017 7.09867 201.09 7.26548C201.163 7.43229 201.288 7.57059 201.444 7.65969L203.307 8.75256L201.839 9.15372C201.731 9.1806 201.63 9.229 201.542 9.29609C201.453 9.36317 201.378 9.4476 201.322 9.54442C201.266 9.64123 201.229 9.7485 201.214 9.85993C201.199 9.97135 201.206 10.0847 201.234 10.1933C201.263 10.302 201.313 10.4037 201.381 10.4926C201.448 10.5815 201.533 10.6557 201.629 10.7109C201.726 10.7661 201.832 10.8013 201.942 10.8142C202.052 10.8272 202.163 10.8178 202.269 10.7864L205.343 9.94779L206.574 10.6709C206.436 11.0912 206.343 11.5324 206.343 11.9998C206.343 12.4672 206.436 12.9084 206.574 13.3288L205.343 14.0518L202.269 13.2132C202.189 13.1902 202.106 13.1796 202.022 13.1818C201.822 13.1873 201.63 13.2663 201.482 13.4043C201.334 13.5423 201.241 13.73 201.218 13.9327C201.196 14.1354 201.246 14.3395 201.361 14.5073C201.475 14.6752 201.644 14.7954 201.839 14.8459L203.307 15.2471L201.444 16.3399C201.345 16.3929 201.258 16.4657 201.187 16.554C201.116 16.6422 201.064 16.7441 201.033 16.8534C201.002 16.9628 200.993 17.0774 201.006 17.1904C201.02 17.3034 201.056 17.4124 201.112 17.511C201.168 17.6095 201.243 17.6956 201.332 17.7639C201.422 17.8323 201.524 17.8816 201.633 17.9088C201.741 17.936 201.854 17.9407 201.965 17.9224C202.075 17.9042 202.181 17.8634 202.276 17.8026L204.138 16.7097L203.745 18.2038C203.714 18.3118 203.705 18.425 203.718 18.5367C203.731 18.6484 203.765 18.7564 203.819 18.8544C203.874 18.9523 203.947 19.0383 204.034 19.1072C204.122 19.1761 204.222 19.2266 204.329 19.2557C204.435 19.2849 204.547 19.292 204.656 19.2767C204.766 19.2615 204.872 19.2242 204.967 19.1669C205.062 19.1097 205.145 19.0337 205.211 18.9435C205.277 18.8532 205.325 18.7504 205.351 18.6412L206.174 15.5145L207.402 14.7931C207.988 15.4648 208.77 15.9563 209.669 16.1418V17.5665L207.418 19.8546C207.338 19.9325 207.275 20.0258 207.231 20.129C207.187 20.2323 207.164 20.3433 207.163 20.4558C207.161 20.5683 207.182 20.6798 207.224 20.7839C207.266 20.888 207.328 20.9826 207.406 21.0621C207.484 21.1417 207.577 21.2045 207.68 21.247C207.782 21.2895 207.892 21.3108 208.002 21.3097C208.113 21.3085 208.222 21.285 208.324 21.2404C208.425 21.1957 208.517 21.131 208.594 21.0498L209.669 19.957V22.1427C209.667 22.2547 209.687 22.3659 209.729 22.4699C209.77 22.5738 209.831 22.6684 209.908 22.7482C209.985 22.8279 210.077 22.8913 210.179 22.9345C210.281 22.9777 210.39 23 210.5 23C210.61 23 210.719 22.9777 210.821 22.9345C210.923 22.8913 211.015 22.8279 211.092 22.7482C211.169 22.6684 211.23 22.5738 211.271 22.4699C211.313 22.3659 211.333 22.2547 211.331 22.1427V19.957L212.406 21.0498C212.483 21.131 212.575 21.1957 212.676 21.2404C212.778 21.285 212.887 21.3085 212.998 21.3097C213.108 21.3108 213.218 21.2895 213.32 21.247C213.423 21.2045 213.516 21.1417 213.594 21.0621C213.672 20.9826 213.734 20.888 213.776 20.7839C213.818 20.6798 213.839 20.5683 213.837 20.4558C213.836 20.3433 213.813 20.2323 213.769 20.129C213.725 20.0258 213.662 19.9325 213.582 19.8546L211.331 17.5665V16.1418C212.23 15.9563 213.012 15.4648 213.598 14.7931L214.826 15.5145L215.649 18.6412C215.675 18.7504 215.723 18.8532 215.789 18.9435C215.855 19.0337 215.938 19.1097 216.033 19.1669C216.128 19.2241 216.234 19.2615 216.344 19.2767C216.453 19.292 216.565 19.2848 216.671 19.2557C216.778 19.2266 216.878 19.1761 216.966 19.1072C217.053 19.0383 217.126 18.9523 217.181 18.8544C217.235 18.7564 217.269 18.6484 217.282 18.5367C217.295 18.425 217.286 18.3118 217.255 18.2038L216.862 16.7097L218.724 17.8026C218.819 17.8634 218.925 17.9042 219.035 17.9224C219.146 17.9407 219.259 17.936 219.367 17.9088C219.476 17.8816 219.578 17.8323 219.668 17.7639C219.757 17.6956 219.832 17.6095 219.888 17.511C219.944 17.4124 219.98 17.3034 219.994 17.1904C220.007 17.0774 219.998 16.9628 219.967 16.8534C219.936 16.7441 219.884 16.6422 219.813 16.554C219.742 16.4657 219.655 16.3929 219.556 16.3399L217.693 15.2471L219.161 14.8459C219.357 14.7947 219.528 14.6724 219.642 14.502C219.756 14.3317 219.805 14.125 219.779 13.9207C219.754 13.7164 219.656 13.5286 219.504 13.3926C219.352 13.2565 219.156 13.1816 218.953 13.1818C218.878 13.182 218.803 13.1926 218.731 13.2132L215.657 14.0518L214.426 13.3288C214.564 12.9084 214.657 12.4672 214.657 11.9998C214.657 11.5324 214.564 11.0912 214.426 10.6709L215.657 9.94779L218.731 10.7864C218.837 10.8178 218.948 10.8272 219.058 10.8142C219.168 10.8013 219.274 10.7661 219.371 10.7109C219.467 10.6557 219.552 10.5815 219.619 10.4926C219.687 10.4037 219.737 10.302 219.766 10.1933C219.794 10.0847 219.801 9.97135 219.786 9.85993C219.771 9.7485 219.734 9.64123 219.678 9.54442C219.622 9.4476 219.547 9.36317 219.458 9.29609C219.37 9.229 219.269 9.1806 219.161 9.15372L217.693 8.75256L219.556 7.65969C219.714 7.56922 219.838 7.42866 219.911 7.25943C219.983 7.09021 219.999 6.90162 219.956 6.72243C219.913 6.54324 219.813 6.38329 219.672 6.26696C219.531 6.15064 219.357 6.08433 219.176 6.07816C219.017 6.07319 218.861 6.11444 218.724 6.19702L216.862 7.2899L217.255 5.79586C217.289 5.67344 217.295 5.54477 217.274 5.41945C217.252 5.29412 217.203 5.17538 217.13 5.07207C217.057 4.96876 216.962 4.88354 216.852 4.82278C216.742 4.76202 216.62 4.72728 216.495 4.72115C216.467 4.71975 216.44 4.71975 216.412 4.72115C216.235 4.73049 216.065 4.79741 215.927 4.91209C215.79 5.02678 215.692 5.18319 215.649 5.35838L214.826 8.48512L213.598 9.20655C213.012 8.53486 212.23 8.04331 211.331 7.85779V6.4331L213.582 4.145C213.703 4.02696 213.785 3.8746 213.82 3.70787C213.854 3.54114 213.838 3.36782 213.773 3.21062C213.709 3.05341 213.599 2.91965 213.459 2.82686C213.318 2.73407 213.153 2.68657 212.986 2.69059C212.767 2.69586 212.558 2.78902 212.406 2.94977L211.331 4.04265V1.8569C211.333 1.74382 211.312 1.63157 211.27 1.52681C211.228 1.42205 211.166 1.32691 211.087 1.24702C211.009 1.16712 210.915 1.1041 210.812 1.06169C210.709 1.01928 210.598 0.998337 210.487 1.0001ZM210.425 9.47234C210.476 9.477 210.526 9.477 210.576 9.47234C211.397 9.498 212.118 9.92139 212.554 10.5652C212.589 10.6845 212.649 10.7944 212.731 10.8871C212.894 11.2243 212.994 11.5987 212.994 11.9998C212.994 12.454 212.867 12.8742 212.661 13.2429C212.648 13.266 212.635 13.2896 212.624 13.3139C212.198 14.0231 211.445 14.5006 210.575 14.5273C210.546 14.5246 210.516 14.5235 210.487 14.524C210.466 14.5243 210.445 14.5254 210.424 14.5273C209.082 14.4854 208.006 13.3738 208.006 11.9998C208.006 11.6008 208.104 11.2279 208.266 10.8921C208.348 10.798 208.41 10.6864 208.444 10.5652C208.88 9.92048 209.603 9.49749 210.425 9.47234ZM210.5 11.1546C210.041 11.1546 209.669 11.5332 209.669 11.9998C209.669 12.4664 210.041 12.8451 210.5 12.8451C210.959 12.8451 211.331 12.4664 211.331 11.9998C211.331 11.5332 210.959 11.1546 210.5 11.1546Z" fill="#F580EB"/>
</svg>
