<svg width="46" height="54" viewBox="0 0 46 54" fill="none" xmlns="http://www.w3.org/2000/svg">
<path d="M6.27273 0.000207707C5.99566 -0.00368453 5.72057 0.0471611 5.46346 0.149789C5.20634 0.252417 4.97232 0.404781 4.775 0.598027C4.57769 0.791272 4.421 1.02155 4.31406 1.27546C4.20711 1.52938 4.15204 1.80188 4.15204 2.07712C4.15204 2.35237 4.20711 2.62487 4.31406 2.87878C4.421 3.1327 4.57769 3.36297 4.775 3.55622C4.97232 3.74946 5.20634 3.90183 5.46346 4.00446C5.72057 4.10708 5.99566 4.15793 6.27273 4.15404H39.7273C40.0043 4.15793 40.2794 4.10708 40.5365 4.00446C40.7937 3.90183 41.0277 3.74946 41.225 3.55622C41.4223 3.36297 41.579 3.1327 41.6859 2.87878C41.7929 2.62487 41.848 2.35237 41.848 2.07712C41.848 1.80188 41.7929 1.52938 41.6859 1.27546C41.579 1.02155 41.4223 0.791272 41.225 0.598027C41.0277 0.404781 40.7937 0.252417 40.5365 0.149789C40.2794 0.0471611 40.0043 -0.00368453 39.7273 0.000207707H6.27273ZM4.18182 8.30787C3.90475 8.30398 3.62966 8.35482 3.37255 8.45745C3.11543 8.56008 2.88141 8.71244 2.6841 8.90569C2.48678 9.09893 2.33009 9.32921 2.22315 9.58312C2.1162 9.83704 2.06113 10.1095 2.06113 10.3848C2.06113 10.66 2.1162 10.9325 2.22315 11.1864C2.33009 11.4404 2.48678 11.6706 2.6841 11.8639C2.88141 12.0571 3.11543 12.2095 3.37255 12.3121C3.62966 12.4147 3.90475 12.4656 4.18182 12.4617H41.8182C42.0952 12.4656 42.3703 12.4147 42.6275 12.3121C42.8846 12.2095 43.1186 12.0571 43.3159 11.8639C43.5132 11.6706 43.6699 11.4404 43.7769 11.1864C43.8838 10.9325 43.9389 10.66 43.9389 10.3848C43.9389 10.1095 43.8838 9.83704 43.7769 9.58312C43.6699 9.32921 43.5132 9.09893 43.3159 8.90569C43.1186 8.71244 42.8846 8.56008 42.6275 8.45745C42.3703 8.35482 42.0952 8.30398 41.8182 8.30787H4.18182ZM4.18182 16.6155C1.87136 16.6155 0 18.4744 0 20.7694V49.8462C0 52.1412 1.87136 54 4.18182 54H41.8182C44.1286 54 46 52.1412 46 49.8462V20.7694C46 18.4744 44.1286 16.6155 41.8182 16.6155H4.18182ZM30.6163 22.8584C31.0031 22.7816 31.3636 23.0744 31.3636 23.4669V28.5984C31.3636 28.9057 31.1441 29.1709 30.8409 29.2312L23 30.943V41.9076C23 44.9919 21.9387 47.7693 18.2587 47.7693C15.2645 47.7693 13.5909 46.1264 13.5909 43.6154C13.5909 37.555 20.9091 39.9746 20.9091 37.3847V24.9232L30.6163 22.8584Z" fill="#F580EB"/>
</svg>
