<svg width="45" height="45" viewBox="0 0 45 45" fill="none" xmlns="http://www.w3.org/2000/svg">
<path d="M9.76762 9.07499e-06C9.54826 -0.00121375 9.32621 0.12113 9.24795 0.374499C8.61408 2.40928 7.3422 5.62394 5.01798 8.44133C4.68148 8.84829 5.09013 9.44787 5.59879 9.30113L8.22772 8.54833C7.94991 11.7883 4.37286 16.2247 2.14451 18.6978C1.62411 19.275 2.26113 20.0839 3.07304 19.8824L7.56666 18.7704C6.95626 22.5504 2.84781 27.4993 0.230135 30.3108C-0.405697 30.9936 0.375062 31.9557 1.365 31.7171L8.16658 30.0777L7.8265 45H11.7393L11.3954 30.0815L18.2008 31.7171C19.1927 31.9538 19.9696 30.9936 19.3357 30.3108C16.718 27.4993 12.6095 22.5504 11.9991 18.7704L16.4928 19.8824C17.3047 20.0839 17.9417 19.275 17.4213 18.6978C15.193 16.2247 11.6179 11.7883 11.3381 8.54833L13.967 9.30113C14.4757 9.44591 14.8941 8.84242 14.5478 8.44133C12.1434 5.66307 10.8861 2.4268 10.2797 0.378321C10.2043 0.12593 9.98698 0.0012319 9.76762 9.07499e-06ZM39.129 1.95653C38.0913 1.95653 37.096 2.3688 36.3622 3.10263C35.6284 3.83647 35.2162 4.83177 35.2162 5.86957C35.2162 6.90738 35.6284 7.90268 36.3622 8.63651C37.096 9.37035 38.0913 9.78262 39.129 9.78262C40.1668 9.78262 41.162 9.37035 41.8958 8.63651C42.6296 7.90268 43.0418 6.90738 43.0418 5.86957C43.0418 4.83177 42.6296 3.83647 41.8958 3.10263C41.162 2.3688 40.1668 1.95653 39.129 1.95653ZM25.3004 29.3478C24.5531 29.3478 23.8714 29.7753 23.5427 30.4484L17.7346 42.3556C17.5096 42.9582 17.5924 43.631 17.9563 44.1593C18.2306 44.554 18.6382 44.8294 19.0949 44.9427C19.2472 44.9804 19.4045 45 19.5649 45H30.7493C30.9738 45 31.1921 44.96 31.3951 44.8892C32.0042 44.6767 32.4855 44.1703 32.6484 43.5173L34.6469 35.5307C34.8014 34.9144 35.6727 34.9031 35.8429 35.5155L38.4794 45H43.0418C43.6835 45 44.2847 44.6837 44.6505 44.1555C45.0164 43.6292 45.101 42.9582 44.876 42.3556L39.0679 30.4446C38.7392 29.7735 38.0537 29.3478 37.3064 29.3478H25.3004Z" fill="#F580EB"/>
</svg>
